<svg width="28" height="28" viewBox="0 0 28 28" fill="none" xmlns="http://www.w3.org/2000/svg">
<g clip-path="url(#clip0_8554_17409)">
<rect width="28" height="28" rx="14" fill="#0079FB"/>
<g clip-path="url(#clip1_8554_17409)">
<path d="M26.3335 14.334C26.3335 7.70657 20.9609 2.33398 14.3335 2.33398C7.70608 2.33398 2.3335 7.70657 2.3335 14.334C2.3335 20.9614 7.70608 26.334 14.3335 26.334C20.9609 26.334 26.3335 20.9614 26.3335 14.334Z" fill="#0079FB"/>
<path d="M14.1752 22.0168C11.5897 22.055 9.40353 20.153 9.01299 17.6057C8.85699 16.5879 9.05117 15.8755 9.36644 14.9117C10.1552 12.4992 11.599 10.0228 12.9801 7.87806L13.5135 7.04679C13.687 6.77461 13.7873 6.46752 14.1408 6.41406C14.4283 6.44352 14.5003 6.65188 14.6448 6.86788C16.0412 8.95152 19.3455 14.3302 19.3303 16.8224C19.3139 19.6588 17.0432 22.0348 14.1757 22.0168M14.1403 7.56006C12.7024 9.68024 11.3666 11.9608 10.4121 14.3384C9.9408 15.5112 9.57753 16.4401 9.82026 17.7022C10.2103 19.7259 12.0675 21.3055 14.1408 21.2461C16.5844 21.2799 18.5083 19.2841 18.5415 16.8797C18.5655 15.2095 16.7279 11.7737 15.8633 10.2688C15.6534 9.90334 14.3399 7.69697 14.1403 7.56006ZM11.1921 17.4312C10.7601 17.4693 10.7584 17.0368 10.7595 16.7172C10.7617 15.8259 10.9897 15.2755 11.1474 14.9662C11.2483 14.6782 11.6012 14.1846 11.9235 13.9501C12.1112 13.8333 12.3932 13.6637 12.5628 13.8322C12.7663 14.1399 12.6544 14.1693 12.529 14.3417C11.9106 14.9727 11.5577 15.8168 11.5428 16.7002C11.5412 17.0248 11.5979 17.3641 11.1921 17.4312ZM15.4324 20.2495C15.0964 20.2304 15.0806 20.0613 15.019 19.7935C15.0997 19.5437 15.1897 19.4024 15.4428 19.4008C16.0979 19.0277 16.7704 18.4702 16.8844 17.5299C16.9935 17.2097 16.9428 16.8442 17.3699 16.781C17.8488 16.781 17.7877 17.5261 17.7195 17.8408C17.2008 19.4613 16.3232 19.8917 15.4324 20.2495Z" fill="white"/>
</g>
<rect x="0.291829" y="0.290365" width="27.4167" height="27.4167" rx="13.7083" stroke="#171717" stroke-opacity="0.1" stroke-width="0.583333"/>
</g>
<defs>
<clipPath id="clip0_8554_17409">
<rect width="28" height="28" rx="14" fill="white"/>
</clipPath>
<clipPath id="clip1_8554_17409">
<rect width="23.3333" height="23.3333" fill="white" transform="translate(2.3335 2.33398)"/>
</clipPath>
</defs>
</svg>