<svg width="21" height="21" viewBox="0 0 21 21" fill="none" xmlns="http://www.w3.org/2000/svg">
<mask id="mask0_8554_19925" style="mask-type:luminance" maskUnits="userSpaceOnUse" x="0" y="0" width="21" height="21">
<path d="M21 0H0V21H21V0Z" fill="white"/>
</mask>
<g mask="url(#mask0_8554_19925)">
<path d="M17.6575 17.8629L14.1119 16.8071L11.438 18.4055L9.57246 18.4047L6.89702 16.8071L3.35296 17.8629L2.2749 14.2236L3.35296 10.1845L2.2749 6.76951L3.35296 2.53711L8.89085 5.84572H12.1196L17.6575 2.53711L18.7356 6.76951L17.6575 10.1845L18.7356 14.2236L17.6575 17.8629Z" fill="white"/>
<path d="M3.35352 2.53711L8.89143 5.84803L8.67117 8.12028L3.35352 2.53711Z" fill="#FF5C16"/>
<path d="M6.89795 14.2266L9.33459 16.0827L6.89795 16.8085V14.2266Z" fill="#FF5C16"/>
<path d="M9.13944 11.1576L8.67112 8.12305L5.67343 10.1864L5.67188 10.1857V10.1872L5.68114 12.3112L6.89677 11.1576H6.89754H9.13944Z" fill="#FF5C16"/>
<path d="M17.6575 2.53711L12.1196 5.84803L12.3391 8.12028L17.6575 2.53711Z" fill="#FF5C16"/>
<path d="M14.1134 14.2266L11.6768 16.0827L14.1134 16.8085V14.2266Z" fill="#FF5C16"/>
<path d="M15.3384 10.1872V10.1857L15.3376 10.1864L12.3399 8.12305L11.8716 11.1576H14.1135L15.3299 12.3112L15.3384 10.1872Z" fill="#FF5C16"/>
<path d="M6.89702 16.8085L3.35296 17.8643L2.2749 14.2266H6.89702V16.8085Z" fill="#E34807"/>
<path d="M9.13874 11.1562L9.81572 15.5431L8.87753 13.104L5.67969 12.3106L6.89609 11.1562H9.13798H9.13874Z" fill="#E34807"/>
<path d="M14.1133 16.8085L17.6573 17.8643L18.7354 14.2266H14.1133V16.8085Z" fill="#E34807"/>
<path d="M11.8713 11.1562L11.1943 15.5431L12.1325 13.104L15.3304 12.3106L14.1132 11.1562H11.8713Z" fill="#E34807"/>
<path d="M2.2749 14.2246L3.35296 10.1855H5.67137L5.67986 12.3103L8.87772 13.1037L9.81589 15.5428L9.33367 16.08L6.89704 14.2239H2.2749V14.2246Z" fill="#FF8D5D"/>
<path d="M18.7353 14.2246L17.6573 10.1855H15.3389L15.3304 12.3103L12.1325 13.1037L11.1943 15.5428L11.6766 16.08L14.1132 14.2239H18.7353V14.2246Z" fill="#FF8D5D"/>
<path d="M12.1196 5.8457H10.5053H8.89086L8.67139 8.11795L9.81591 15.5394H11.1946L12.3399 8.11795L12.1196 5.8457Z" fill="#FF8D5D"/>
<path d="M3.35296 2.53711L2.2749 6.76951L3.35296 10.1845H5.67137L8.67061 8.12028L3.35296 2.53711Z" fill="#661800"/>
<path d="M8.46879 12.0379H7.41854L6.84668 12.5984L8.87837 13.1022L8.46879 12.0371V12.0379Z" fill="#661800"/>
<path d="M17.6575 2.53711L18.7356 6.76951L17.6575 10.1845H15.3391L12.3398 8.12028L17.6575 2.53711Z" fill="#661800"/>
<path d="M12.5432 12.0379H13.595L14.1668 12.5991L12.1328 13.1037L12.5432 12.0371V12.0379Z" fill="#661800"/>
<path d="M11.4374 16.9593L11.6769 16.0821L11.1947 15.5449H9.81523L9.33301 16.0821L9.57258 16.9593" fill="#661800"/>
<path d="M11.437 16.959V18.4076H9.57227V16.959H11.437Z" fill="#C0C4CD"/>
<path d="M6.89795 16.8079L9.57416 18.4078V16.9593L9.33459 16.082L6.89795 16.8079Z" fill="#E7EBF6"/>
<path d="M14.1132 16.8079L11.437 18.4078V16.9593L11.6766 16.082L14.1132 16.8079Z" fill="#E7EBF6"/>
</g>
</svg>
