<svg width="28" height="28" viewBox="0 0 28 28" fill="none" xmlns="http://www.w3.org/2000/svg">
<g clip-path="url(#clip0_8554_22108)">
<path d="M28 14C28 6.26801 21.732 0 14 0C6.26801 0 0 6.26801 0 14C0 21.732 6.26801 28 14 28C21.732 28 28 21.732 28 14Z" fill="#411EDF"/>
<path d="M22.5512 13.7068C22.3496 13.5097 22.0792 13.3987 21.7973 13.3974C21.5153 13.3961 21.2439 13.5046 21.0405 13.6998L19.3758 15.3442C19.1728 15.5425 18.9003 15.6535 18.6166 15.6535C18.3328 15.6535 18.0603 15.5425 17.8574 15.3442L17.8536 15.3397C17.7694 15.2663 17.6987 15.1786 17.6449 15.0807C17.5757 14.9348 17.5357 14.7768 17.5271 14.6155C17.5271 14.4908 17.5666 14.305 17.613 14.2121L17.62 14.2C17.6738 14.0662 17.7546 13.9448 17.8574 13.8436L20.3208 11.4095C20.3899 11.3395 20.4616 11.2676 20.5359 11.1938L22.5964 9.15744C22.6954 9.05924 22.774 8.94241 22.8276 8.8137C22.8812 8.68498 22.9088 8.54692 22.9088 8.40748C22.9088 8.26805 22.8812 8.12999 22.8276 8.00127C22.774 7.87256 22.6954 7.75573 22.5964 7.65753C22.3934 7.45922 22.121 7.34819 21.8372 7.34819C21.5535 7.34819 21.281 7.45922 21.078 7.65753L17.6589 11.036L17.6398 11.0563L17.6321 11.0614L17.4578 11.2333C17.2548 11.4316 16.9823 11.5426 16.6986 11.5426C16.4148 11.5426 16.1423 11.4316 15.9394 11.2333C15.8404 11.1351 15.7618 11.0182 15.7082 10.8895C15.6546 10.7608 15.627 10.6227 15.627 10.4833C15.627 10.3439 15.6546 10.2058 15.7082 10.0771C15.7618 9.94838 15.8404 9.83155 15.9394 9.73335L17.3432 8.34608L17.354 8.33398L17.788 7.90508C17.8937 7.80071 17.9726 7.67917 18.0248 7.54871L18.0318 7.53726C18.0789 7.44435 18.1183 7.25789 18.1183 7.1338C18.1183 7.00208 18.0629 6.79271 17.9999 6.66798C17.9462 6.57038 17.8758 6.48294 17.7919 6.40962L17.7874 6.40517C17.5845 6.20686 17.312 6.09583 17.0282 6.09583C16.7445 6.09583 16.472 6.20686 16.269 6.40517L13.4277 9.2128L13.4149 9.22362L13.1878 9.44826C12.9848 9.64657 12.7123 9.75759 12.4286 9.75759C12.1448 9.75759 11.8723 9.64657 11.6694 9.44826C11.5704 9.35006 11.4918 9.23323 11.4382 9.10451C11.3846 8.9758 11.357 8.83774 11.357 8.6983C11.357 8.55887 11.3846 8.42081 11.4382 8.29209C11.4918 8.16338 11.5704 8.04655 11.6694 7.94835L11.7604 7.8548C11.8595 7.75659 11.9381 7.63972 11.9918 7.51095C12.0455 7.38217 12.0731 7.24404 12.0731 7.10453C12.0731 6.96502 12.0455 6.82688 11.9918 6.69811C11.9381 6.56934 11.8595 6.45247 11.7604 6.35426C11.5575 6.15595 11.285 6.04492 11.0012 6.04492C10.7175 6.04492 10.445 6.15595 10.242 6.35426L10.0098 6.58335L8.67849 7.88662C8.30876 8.24871 7.94031 8.61717 7.62658 8.93917L7.29376 9.26753C7.25091 9.3108 7.21252 9.35641 7.17858 9.40435C6.98385 9.61117 6.84003 9.76898 6.77767 9.8498C6.58931 10.0827 6.30676 10.5014 6.14958 10.7808C5.96759 11.095 5.80253 11.4188 5.65512 11.7506C5.54503 12.0071 5.38785 12.4805 5.30131 12.7987C5.22303 13.1169 5.12885 13.7297 5.10531 14.1567C5.07349 14.6219 5.09767 15.1959 5.16003 15.5917C5.21576 15.9852 5.29976 16.3742 5.4114 16.7556C5.49731 17.035 5.70985 17.5396 5.88231 17.8807C6.0554 18.2224 6.36212 18.7271 6.57403 19.0058C6.78594 19.2858 7.12385 19.674 7.33576 19.8674C7.5394 20.0615 7.85376 20.325 8.02685 20.4567C8.19931 20.5884 8.53722 20.8061 8.77267 20.9454C9.00812 21.0854 9.41603 21.2789 9.67631 21.3877C9.93467 21.4959 10.4769 21.6677 10.8695 21.7683C11.4429 21.9153 11.8043 21.9541 12.5425 21.9541C13.2807 21.9541 13.6415 21.9153 14.2072 21.7683C14.6081 21.6671 15.1656 21.4883 15.4481 21.3724C15.7307 21.256 16.1863 21.0224 16.4689 20.8525C16.7778 20.6626 17.0792 20.4607 17.3725 20.2474C17.5838 20.0762 18.9036 18.8193 20.2934 17.4378L22.5519 15.2067L22.5557 15.2016C22.6539 15.1033 22.7318 14.9866 22.7848 14.8581C22.8378 14.7296 22.8648 14.5919 22.8644 14.453C22.864 14.314 22.8361 14.1765 22.7824 14.0483C22.7286 13.9201 22.6501 13.8039 22.5512 13.7062" fill="white"/>
</g>
<defs>
<clipPath id="clip0_8554_22108">
<rect width="28" height="28" fill="white"/>
</clipPath>
</defs>
</svg>
