<svg width="24" height="24" viewBox="0 0 24 24" fill="none" xmlns="http://www.w3.org/2000/svg">
<g clip-path="url(#clip0_8261_55850)">
<path d="M11.2296 0H12.7649C12.8359 0.0583617 13.2472 0.0563702 13.3672 0.0681019C13.9517 0.130564 14.5303 0.239452 15.0975 0.393734C19.9734 1.75232 23.5566 5.86207 23.9531 10.9734C23.9604 11.0692 23.9334 11.1957 24 11.2722V12.745C23.9374 12.8265 23.9236 13.8221 23.8237 14.1077C23.8045 14.2922 23.752 14.4946 23.7096 14.6771C23.6222 15.1387 23.4354 15.7133 23.2732 16.1531C22.4218 18.4818 20.8669 20.4878 18.824 21.8929C17.7613 22.6166 16.5922 23.1702 15.3588 23.5336C15.2803 23.5563 14.8831 23.6684 14.8182 23.67C14.64 23.7162 14.1485 23.8425 13.9706 23.839C13.9201 23.8519 13.8862 23.8648 13.8342 23.8582C13.6367 23.9048 12.8098 23.9627 12.7593 23.9948L12.7511 24H11.2554C11.1717 23.9576 11.0417 23.9639 10.9457 23.9585C10.3343 23.9238 9.73852 23.8062 9.14313 23.6613C4.9661 22.6407 1.65502 19.4622 0.464766 15.3303C0.331144 14.8662 0.22365 14.395 0.142792 13.9189C0.117243 13.7612 0.0520284 12.8517 0.00722062 12.7833C0.00498059 12.7799 0.00240687 12.7767 0 12.7734V11.2354C0.0560552 11.1674 0.0485273 10.8269 0.0611243 10.699C0.11889 10.1322 0.219919 9.57077 0.363328 9.01945C1.4141 4.89091 4.57898 1.6314 8.67478 0.459483C9.17723 0.314841 9.68857 0.203103 10.2056 0.124978C10.3436 0.103641 11.1694 0.0387666 11.2192 0.00728958C11.2228 0.00503184 11.2261 0.00242986 11.2296 0Z" fill="url(#paint0_linear_8261_55850)"/>
<path d="M13.8341 23.859C13.7519 23.8571 13.6697 23.8531 13.5877 23.8473L13.5815 23.8245C13.6851 23.7472 14.0188 23.6391 14.115 23.7577L14.0907 23.7917L14.0085 23.7966L13.9705 23.8398C13.92 23.8527 13.8861 23.8655 13.8341 23.859Z" fill="#6879F6"/>
<path d="M6.12914 4.71684C6.58601 4.6707 7.16008 4.71284 7.50993 5.0295C7.97404 5.44964 8.38837 6.0233 8.79342 6.50538L11.5956 9.81757C11.7289 9.97385 11.8378 10.1456 11.9792 10.3075L12.0047 10.3067C12.1985 9.94134 12.5962 9.62974 12.8455 9.30778C13.2024 8.8467 13.5426 8.41641 13.9486 7.99577C14.1163 7.8221 14.2764 7.55869 14.4424 7.37039C15.0594 6.67064 15.6249 5.92509 16.2425 5.22703C16.4117 5.06325 16.6518 4.85191 16.8842 4.79491C17.8556 4.55674 18.8396 4.73709 19.1882 5.76398C19.2333 5.89282 19.2597 6.02747 19.2665 6.16383C19.2992 6.84038 19.2747 7.78327 19.274 8.48278L19.2716 12.7016L19.271 15.9521C19.2732 16.593 19.2881 17.2359 19.264 17.8762C19.2609 18.0442 19.1905 18.1919 19.1342 18.3465C18.9865 18.7653 18.6433 19.0539 18.2242 19.179C17.568 19.3749 16.9427 19.2422 16.5057 18.6897C16.0706 18.1397 15.7408 17.5533 15.3551 16.9802L13.9736 14.927C13.7613 14.6134 13.4092 14.2056 13.2671 13.8692C13.1942 13.5178 13.6805 13.3796 13.8702 13.5731C14.4837 14.1992 15.1782 14.6837 15.7979 15.302C15.9652 15.4689 16.2171 15.6172 16.3966 15.7809C16.4715 15.8492 16.8675 16.2005 16.9458 16.1835C17.0646 16.0363 17.0166 13.908 17.0165 13.5309L17.0154 8.83369C17.0165 8.63822 17.0708 7.95485 16.9153 7.86246C16.7934 7.88154 16.5574 8.21897 16.4631 8.32791L15.577 9.3642L13.2404 12.1422C12.9615 12.4733 12.4508 13.2381 12.0571 13.3413C11.6719 13.4423 10.9481 12.386 10.7208 12.1209L8.51489 9.50379C8.14476 9.05789 7.49172 8.21934 7.06029 7.8417L7.01988 7.84838C6.92648 8.04192 6.96035 9.67027 6.96056 10.0101L6.96276 13.263L6.96185 14.9756C6.96103 15.3727 6.93923 15.8806 7.00854 16.2624C7.76897 15.6265 8.53507 14.9699 9.295 14.3302C9.54513 14.1196 9.81225 13.8588 10.0593 13.627C10.3822 13.3241 10.8296 13.5339 10.66 13.9776C9.61005 15.4978 8.59755 17.0592 7.54554 18.5789C7.28346 18.9574 6.98409 19.1799 6.5328 19.2513C6.10038 19.3194 5.65851 19.2144 5.30301 18.9589C4.75085 18.5558 4.69518 17.9037 4.70765 17.2809C4.71529 16.8991 4.70676 16.5074 4.707 16.1248L4.7088 12.5377L4.70932 8.22788L4.70693 6.92944C4.70524 6.33954 4.66197 5.78789 5.03522 5.28469C5.29818 4.9301 5.709 4.78235 6.12914 4.71684Z" fill="#FEFEFE"/>
</g>
<defs>
<linearGradient id="paint0_linear_8261_55850" x1="3.3" y1="3.3" x2="20.1" y2="21" gradientUnits="userSpaceOnUse">
<stop stop-color="#5AABE5"/>
<stop offset="1" stop-color="#6B76F6"/>
</linearGradient>
<clipPath id="clip0_8261_55850">
<rect width="24" height="24" fill="white"/>
</clipPath>
</defs>
</svg>
