<svg width="28" height="28" viewBox="0 0 28 28" fill="none" xmlns="http://www.w3.org/2000/svg">
<rect width="28" height="28" rx="14" fill="#1C1917"/>
<path d="M13.6113 12.4766C13.3105 12.4766 13.022 12.5961 12.8093 12.8088C12.5965 13.0215 12.477 13.31 12.477 13.6108C12.477 14.1893 12.4203 15.0343 12.3296 15.8793" stroke="#FAFAFA" stroke-width="0.56713" stroke-linecap="round" stroke-linejoin="round"/>
<path d="M14.7456 14.2461C14.7456 15.5959 14.7456 17.8644 14.1785 19.2822Z" fill="#FAFAFA"/>
<path d="M14.7456 14.2461C14.7456 15.5959 14.7456 17.8644 14.1785 19.2822" stroke="#FAFAFA" stroke-width="0.56713" stroke-linecap="round" stroke-linejoin="round"/>
<path d="M16.6113 18.7264C16.6794 18.3861 16.8552 17.422 16.8949 17.0137" stroke="#FAFAFA" stroke-width="0.56713" stroke-linecap="round" stroke-linejoin="round"/>
<path d="M7.93994 13.6107C7.93994 12.4204 8.31446 11.2603 9.01044 10.2947C9.70643 9.32906 10.6886 8.60689 11.8178 8.23049C12.947 7.85408 14.1661 7.84251 15.3022 8.19742C16.4384 8.55233 17.4341 9.25573 18.1483 10.208" stroke="#FAFAFA" stroke-width="0.56713" stroke-linecap="round" stroke-linejoin="round"/>
<path d="M7.93994 15.8789H7.94561" stroke="#FAFAFA" stroke-width="0.56713" stroke-linecap="round" stroke-linejoin="round"/>
<path d="M19.1692 15.8793C19.2826 14.7451 19.2435 12.8429 19.1692 12.4766" stroke="#FAFAFA" stroke-width="0.56713" stroke-linecap="round" stroke-linejoin="round"/>
<path d="M9.64136 17.8643C9.92492 17.0136 10.2085 15.3122 10.2085 13.6108C10.2079 13.2245 10.2731 12.841 10.4013 12.4766" stroke="#FAFAFA" stroke-width="0.56713" stroke-linecap="round" stroke-linejoin="round"/>
<path d="M11.7114 19.2807C11.8305 18.9064 11.9666 18.5321 12.0347 18.1465" stroke="#FAFAFA" stroke-width="0.56713" stroke-linecap="round" stroke-linejoin="round"/>
<path d="M11.9099 10.661C12.4274 10.3622 13.0143 10.205 13.6118 10.2051C14.2093 10.2052 14.7963 10.3626 15.3136 10.6615C15.831 10.9604 16.2605 11.3903 16.559 11.9079C16.8575 12.4255 17.0145 13.0125 17.0141 13.61V14.7443" stroke="#FAFAFA" stroke-width="0.56713" stroke-linecap="round" stroke-linejoin="round"/>
</svg>
